<?xml version="1.0" encoding="utf-8"?>
<svg xmlns="http://www.w3.org/2000/svg" version="1.1" width="1024px" height="1024px" fill="#ffffff" style="shape-rendering:geometricPrecision; text-rendering:geometricPrecision; image-rendering:optimizeQuality; fill-rule:evenodd; clip-rule:evenodd">
  <path style="opacity:0.999" d="M 391.302 280.57 C 387.464 279.012 383.357 278.783 378.982 279.885 C 330.258 295.295 295.808 326.551 275.631 373.655 C 273.82 380.024 271.995 386.412 270.155 392.819 C 268.766 407.566 266.484 422.167 263.311 436.624 C 248.502 468.106 223.633 481.568 188.706 477.006 C 164.628 473.305 146.148 461.214 133.266 440.731 C 125.557 420.382 118.486 399.849 112.048 379.13 C 98.834 412.623 94.956 447.301 100.412 483.167 C 118.533 558.216 166.216 599.968 243.462 608.42 C 266.729 609.105 290 609.334 313.275 609.105 C 313.047 594.496 313.275 579.894 313.96 565.3 C 320.53 544.174 334.904 535.276 357.08 538.607 C 370.298 541.787 379.196 549.773 383.773 562.562 C 384.229 581.271 384.687 599.979 385.142 618.687 C 413.661 647.205 442.18 675.725 470.698 704.243 C 514.044 704.928 557.393 705.156 600.744 704.928 C 601.96 691.718 600.363 678.941 595.952 666.599 C 590.867 661.549 584.707 658.584 577.472 657.701 C 560.076 657.528 542.738 656.615 525.454 654.963 C 518.905 651.609 513.658 646.818 509.712 640.59 C 501.388 627.136 492.718 613.903 483.703 600.892 C 479.249 590.374 479.249 579.879 483.703 569.407 C 495.452 554.034 507.315 538.976 519.294 524.233 C 533.44 493.662 529.79 465.371 508.343 439.362 C 499.815 430.393 489.548 424.233 477.543 420.882 C 464.952 419.991 452.632 417.709 440.583 414.037 C 423.214 403.365 417.511 388.08 423.471 368.179 C 431.241 352.991 443.789 345.691 461.116 346.277 C 511.453 349.651 550.923 372.011 579.526 413.353 C 607.593 464.059 607.593 514.709 579.526 565.3 C 575.478 571.856 570.687 577.787 565.152 583.096 C 564.409 583.178 563.953 583.634 563.783 584.465 C 569.184 585.821 574.659 586.277 580.21 585.834 C 634.776 592.258 665.576 622.831 672.611 677.55 C 673.524 699.452 673.524 721.354 672.611 743.257 C 669.899 763.766 658.263 774.945 637.704 776.795 C 576.559 777.708 515.416 777.708 454.272 776.795 C 446.562 776.588 439.718 774.079 433.738 769.266 C 405.238 740.993 376.947 712.474 348.867 683.71 C 312.481 681.908 275.977 680.995 239.355 680.972 C 149.914 671.366 85.349 626.877 45.656 547.505 C 23.544 492.261 19.894 435.681 34.705 377.762 C 48.276 341.241 62.878 305.194 78.51 269.619 C 91.654 252.466 108.765 246.762 129.843 252.508 C 136.862 255.207 143.022 259.086 148.323 264.143 C 152.738 270.506 156.388 277.35 159.275 284.677 C 170.452 324.146 182.316 363.388 194.866 402.402 C 206.525 323.03 247.364 264.168 317.382 225.814 C 318.921 205.646 318.008 185.569 314.644 165.583 C 311.831 166.147 309.177 166.765 307.609 168.81 C 304.367 171.457 303.822 174.663 302.623 179.014 C 301.912 181.92 300.849 185.762 300.174 188.126 C 299.547 190.342 298.343 196.198 297.011 202.807 C 296.782 203.951 296.272 205.323 296.056 206.483 C 292.309 211.17 288.594 213.744 283.632 213.494 C 273.825 213.076 267.839 208.393 264.413 199.686 C 263.152 175.623 270.948 155.209 288.635 138.205 C 293.741 134.438 298.761 130.787 303.693 127.254 C 311.162 123.196 318.919 119.774 326.964 116.987 C 348.812 111.017 368.06 115.283 385.827 130.154 C 389.953 134.09 392.166 136.896 396.778 142.385 C 400.278 147.283 404.589 152.462 406.36 158.738 C 421.306 158.664 431.641 165.955 436.773 179.718 C 437.425 184.699 436.212 188.772 433.946 191.338 C 430.497 195.471 425.344 197.466 419.901 197.916 C 401.735 197.085 392.992 193.537 385.938 188.539 C 380.737 184.286 377.523 180.037 374.191 175.165 C 372.072 180.884 370.283 202.557 372.138 208.018 C 380.15 205.457 388.363 203.861 396.778 203.227 C 419.593 202.771 442.407 202.314 465.223 201.858 C 477.036 185.63 489.585 170.344 502.867 156 C 511.377 94.145 543.546 49.656 599.375 22.533 C 631.174 10.216 663.799 7.706 697.251 15.004 C 751.51 2.995 796.912 17.368 833.456 58.124 C 907.883 65.519 956.479 104.533 979.243 175.165 C 983.844 204.188 985.213 233.392 983.35 262.774 C 975.035 306.164 949.711 333.769 907.376 345.592 C 899.58 354.297 891.823 362.966 884.105 371.601 C 869.701 382.335 853.731 389.635 836.194 393.504 C 795.119 393.732 754.052 394.417 712.993 395.557 C 705.927 405.146 699.082 414.957 692.46 424.988 C 716.245 439.163 740.43 452.624 765.011 465.371 C 779.813 475.755 788.711 489.901 791.705 507.807 C 792.964 525.224 792.507 542.563 790.336 559.825 C 781.963 580.962 766.677 588.948 744.478 583.78 C 730.442 578.329 722.458 568.063 720.522 552.98 C 720.066 542.942 719.609 532.903 719.153 522.864 C 695.616 509.382 671.889 496.149 647.97 483.167 C 647.018 451.516 639.033 421.856 624.015 394.188 C 638.844 374.568 653.675 354.946 668.504 335.326 C 672.919 330.478 678.167 326.599 684.246 323.69 C 729.876 323.234 775.506 322.777 821.136 322.321 C 811.83 319.986 803.161 316.335 795.127 311.37 C 783.368 299.16 771.048 287.295 758.167 275.779 C 742.75 274.044 727.236 273.131 711.624 273.041 C 708.105 271.808 704.911 269.983 702.042 267.565 C 692.206 254.123 693.575 241.803 706.149 230.605 C 716.452 226.561 727.176 224.965 738.318 225.814 C 751.616 225.123 764.621 226.72 777.331 230.605 C 794.033 243.189 809.548 257.334 823.874 273.041 C 848.058 273.954 872.241 273.954 896.425 273.041 C 904.218 269.814 909.009 264.112 910.798 255.93 C 911.712 239.047 911.712 222.163 910.798 205.281 C 905.998 166.717 884.78 142.762 847.145 133.414 C 835.364 131.757 823.5 130.844 811.553 130.676 C 802.724 129.114 795.195 125.236 788.967 119.04 C 776.465 96.927 757.527 84.607 732.158 82.08 C 721.544 84.778 710.822 87.06 699.988 88.924 C 686.866 87.182 673.862 84.9 660.975 82.08 C 642.248 83.892 624.909 89.597 608.957 99.191 C 595.739 109.859 586.384 123.319 580.895 139.574 C 578.389 153.227 576.107 166.916 574.05 180.64 C 550.152 209.776 526.196 238.75 502.183 267.565 C 500.035 270.676 496.857 272.521 492.601 273.041 C 472.052 273.27 451.519 273.954 431 275.094 C 433.035 278.716 434.84 280.486 436.947 287.941 C 440.05 298.404 440.039 308.159 432.369 315.477 C 429.82 317.396 427.148 318.605 423.466 318.941 C 420.621 319.132 417.852 318.714 415.362 318.001 C 411.262 316.275 409.777 314.223 407.729 310.686 C 402.919 300.144 397.443 290.106 391.302 280.57 Z"/>
  <g style="" transform="matrix(1.368896, 0, 0, 1.368896, -199.376205, -307.370941)">
    <path style="opacity:0.004" d="M 367.5,317.5 C 366.833,316.167 366.833,316.167 367.5,317.5 Z"/>
  </g>
  <g style="" transform="matrix(1.368896, 0, 0, 1.368896, -199.376205, -307.370941)">
    <path style="opacity:0.004" d="M 435.5,327.5 C 436.833,328.167 436.833,328.167 435.5,327.5 Z"/>
  </g>
  <g style="" transform="matrix(1.368896, 0, 0, 1.368896, -199.376205, -307.370941)">
    <path style="opacity:0.004" d="M 338.5,370.5 C 337.833,371.167 337.833,371.167 338.5,370.5 Z"/>
  </g>
  <g style="" transform="matrix(1.368896, 0, 0, 1.368896, -199.376205, -307.370941)">
    <path style="opacity:0.004" d="M 464.5,428.5 C 463.833,427.167 463.833,427.167 464.5,428.5 Z"/>
  </g>
  <g style="" transform="matrix(1.368896, 0, 0, 1.368896, -199.376205, -307.370941)">
    <path style="opacity:0.004" d="M 464.5,428.5 C 465.833,429.167 465.833,429.167 464.5,428.5 Z"/>
  </g>
  <g style="" transform="matrix(1.368896, 0, 0, 1.368896, -199.376205, -307.370941)">
    <path style="opacity:0.024" d="M 431.5,429.5 C 430.833,430.167 430.833,430.167 431.5,429.5 Z"/>
  </g>
  <g style="" transform="matrix(1.368896, 0, 0, 1.368896, -199.376205, -307.370941)">
    <path style="opacity:1" fill="#6cc1a9" d="M 558.5,650.5 C 562.167,651.167 565.833,651.833 569.5,652.5C 565.445,652.824 561.445,652.491 557.5,651.5C 557.624,650.893 557.957,650.56 558.5,650.5 Z"/>
  </g>
  <ellipse style="stroke: currentcolor; paint-order: fill; stroke-width: 0px;" cx="351.823" cy="68.777" rx="26.322" ry="25.362"/>
  <ellipse style="stroke: currentcolor; paint-order: fill; stroke-width: 0px;" cx="733.939" cy="139.698" rx="26.322" ry="25.362"/>
</svg>