<?xml version="1.0" encoding="utf-8"?>
<svg xmlns="http://www.w3.org/2000/svg" version="1.1" width="1024px" height="1024px" fill="#08be84" style="shape-rendering:geometricPrecision; text-rendering:geometricPrecision; image-rendering:optimizeQuality; fill-rule:evenodd; clip-rule:evenodd">
  <g>
    <path style="opacity:0.999" d="M 431.5 429.5 C 428.696 428.362 425.696 428.195 422.5 429 C 386.906 440.257 361.74 463.09 347 497.5 C 345.677 502.153 344.344 506.819 343 511.5 C 341.985 522.273 340.318 532.939 338 543.5 C 327.182 566.498 309.015 576.332 283.5 573 C 265.911 570.296 252.411 561.463 243 546.5 C 237.369 531.635 232.203 516.635 227.5 501.5 C 217.847 525.967 215.014 551.3 219 577.5 C 232.238 632.325 267.071 662.825 323.5 669 C 340.497 669.5 357.497 669.667 374.5 669.5 C 374.333 658.828 374.5 648.161 375 637.5 C 379.8 622.067 390.3 615.567 406.5 618 C 416.156 620.323 422.656 626.157 426 635.5 C 426.333 649.167 426.667 662.833 427 676.5 C 447.833 697.333 468.667 718.167 489.5 739 C 521.165 739.5 552.832 739.667 584.5 739.5 C 585.389 729.85 584.222 720.516 581 711.5 C 577.285 707.811 572.785 705.645 567.5 705 C 554.792 704.874 542.126 704.207 529.5 703 C 524.716 700.55 520.883 697.05 518 692.5 C 511.919 682.672 505.586 673.005 499 663.5 C 495.746 655.817 495.746 648.15 499 640.5 C 507.583 629.27 516.249 618.27 525 607.5 C 535.334 585.167 532.667 564.5 517 545.5 C 510.77 538.948 503.27 534.448 494.5 532 C 485.302 531.349 476.302 529.682 467.5 527 C 454.812 519.204 450.646 508.038 455 493.5 C 460.676 482.405 469.842 477.072 482.5 477.5 C 519.272 479.965 548.105 496.299 569 526.5 C 589.504 563.542 589.504 600.542 569 637.5 C 566.043 642.289 562.543 646.622 558.5 650.5 C 557.957 650.56 557.624 650.893 557.5 651.5 C 561.445 652.491 565.445 652.824 569.5 652.5 C 609.361 657.193 631.861 679.527 637 719.5 C 637.667 735.5 637.667 751.5 637 767.5 C 635.019 782.482 626.519 790.649 611.5 792 C 566.833 792.667 522.167 792.667 477.5 792 C 471.868 791.849 466.868 790.016 462.5 786.5 C 441.68 765.846 421.013 745.013 400.5 724 C 373.92 722.684 347.253 722.017 320.5 722 C 255.162 714.983 207.996 682.483 179 624.5 C 162.847 584.144 160.18 542.811 171 500.5 C 180.914 473.821 191.581 447.488 203 421.5 C 212.602 408.97 225.102 404.803 240.5 409 C 245.627 410.972 250.127 413.806 254 417.5 C 257.225 422.148 259.891 427.148 262 432.5 C 270.165 461.333 278.832 490 288 518.5 C 296.517 460.518 326.351 417.518 377.5 389.5 C 378.624 374.767 377.957 360.1 375.5 345.5 C 373.445 345.912 371.506 346.364 370.361 347.858 C 367.992 349.791 367.594 352.133 366.718 355.312 C 366.199 357.435 365.422 360.241 364.929 361.968 C 364.471 363.587 363.592 367.865 362.619 372.693 C 362.451 373.529 362.079 374.531 361.921 375.378 C 359.184 378.802 356.47 380.683 352.845 380.5 C 345.681 380.195 341.308 376.774 338.805 370.413 C 337.884 352.835 343.579 337.922 356.5 325.5 C 360.23 322.748 363.897 320.081 367.5 317.5 C 372.956 314.536 378.623 312.036 384.5 310 C 400.46 305.639 414.521 308.755 427.5 319.619 C 430.514 322.494 432.131 324.544 435.5 328.554 C 438.057 332.132 441.206 335.915 442.5 340.5 C 453.418 340.446 460.968 345.772 464.717 355.826 C 465.193 359.465 464.307 362.44 462.652 364.315 C 460.132 367.334 456.368 368.791 452.392 369.12 C 439.121 368.513 432.734 365.921 427.581 362.27 C 423.782 359.163 421.434 356.059 419 352.5 C 417.452 356.678 416.145 372.51 417.5 376.5 C 423.353 374.629 429.353 373.463 435.5 373 C 452.167 372.667 468.833 372.333 485.5 372 C 494.13 360.145 503.297 348.978 513 338.5 C 519.216 293.314 542.716 260.814 583.5 241 C 606.73 232.002 630.563 230.169 655 235.5 C 694.637 226.727 727.804 237.227 754.5 267 C 808.87 272.402 844.37 300.902 861 352.5 C 864.361 373.702 865.361 395.036 864 416.5 C 857.926 448.197 839.426 468.363 808.5 477 C 802.805 483.359 797.138 489.692 791.5 496 C 780.978 503.841 769.311 509.174 756.5 512 C 726.494 512.167 696.494 512.667 666.5 513.5 C 661.338 520.505 656.338 527.672 651.5 535 C 668.876 545.355 686.543 555.188 704.5 564.5 C 715.313 572.086 721.813 582.42 724 595.5 C 724.92 608.224 724.586 620.89 723 633.5 C 716.884 648.941 705.717 654.775 689.5 651 C 679.247 647.018 673.414 639.518 672 628.5 C 671.667 621.167 671.333 613.833 671 606.5 C 653.806 596.651 636.473 586.984 619 577.5 C 618.304 554.379 612.471 532.712 601.5 512.5 C 612.333 498.167 623.167 483.833 634 469.5 C 637.225 465.959 641.059 463.125 645.5 461 C 678.833 460.667 712.167 460.333 745.5 460 C 738.702 458.294 732.369 455.627 726.5 452 C 717.91 443.08 708.91 434.413 699.5 426 C 688.238 424.733 676.905 424.066 665.5 424 C 662.929 423.099 660.596 421.766 658.5 420 C 651.315 410.18 652.315 401.18 661.5 393 C 669.027 390.046 676.861 388.88 685 389.5 C 694.715 388.995 704.215 390.162 713.5 393 C 725.701 402.193 737.035 412.526 747.5 424 C 765.167 424.667 782.833 424.667 800.5 424 C 806.193 421.643 809.693 417.477 811 411.5 C 811.667 399.167 811.667 386.833 811 374.5 C 807.493 346.329 791.993 328.829 764.5 322 C 755.894 320.79 747.227 320.123 738.5 320 C 732.05 318.859 726.55 316.026 722 311.5 C 712.867 295.346 699.033 286.346 680.5 284.5 C 672.747 286.471 664.914 288.138 657 289.5 C 647.414 288.227 637.914 286.56 628.5 284.5 C 614.82 285.824 602.153 289.991 590.5 297 C 580.844 304.793 574.01 314.626 570 326.5 C 568.17 336.474 566.503 346.474 565 356.5 C 547.542 377.784 530.042 398.95 512.5 420 C 510.931 422.272 508.609 423.62 505.5 424 C 490.489 424.167 475.489 424.667 460.5 425.5 C 461.986 428.146 463.305 429.439 464.844 434.885 C 467.111 442.528 467.103 449.654 461.5 455 C 459.638 456.402 457.686 457.285 454.996 457.531 C 452.918 457.67 450.895 457.365 449.076 456.844 C 446.081 455.583 444.996 454.084 443.5 451.5 C 439.986 443.799 435.986 436.466 431.5 429.5 Z"/>
  </g>
  <g>
    <path style="opacity:0.004" d="M 367.5,317.5 C 366.833,316.167 366.833,316.167 367.5,317.5 Z"/>
  </g>
  <g>
    <path style="opacity:0.004" d="M 435.5,327.5 C 436.833,328.167 436.833,328.167 435.5,327.5 Z"/>
  </g>
  <g>
    <path style="opacity:0.004" d="M 338.5,370.5 C 337.833,371.167 337.833,371.167 338.5,370.5 Z"/>
  </g>
  <g>
    <path style="opacity:0.004" d="M 464.5,428.5 C 463.833,427.167 463.833,427.167 464.5,428.5 Z"/>
  </g>
  <g>
    <path style="opacity:0.004" d="M 464.5,428.5 C 465.833,429.167 465.833,429.167 464.5,428.5 Z"/>
  </g>
  <g>
    <path style="opacity:0.024" d="M 431.5,429.5 C 430.833,430.167 430.833,430.167 431.5,429.5 Z"/>
  </g>
  <g>
    <path style="opacity:1" fill="#6cc1a9" d="M 558.5,650.5 C 562.167,651.167 565.833,651.833 569.5,652.5C 565.445,652.824 561.445,652.491 557.5,651.5C 557.624,650.893 557.957,650.56 558.5,650.5 Z"/>
  </g>
  <ellipse style="stroke: currentcolor; paint-order: fill; fill: rgb(8, 190, 132); stroke-width: 0px;" cx="402.66" cy="274.782" rx="19.229" ry="18.527"/>
  <ellipse style="stroke: currentcolor; paint-order: fill; fill: rgb(8, 190, 132); stroke-width: 0px;" cx="681.801" cy="326.591" rx="19.229" ry="18.527"/>
</svg>